<?xml version="1.0" encoding="utf-8"?>
<!-- Generator: Adobe Illustrator 22.1.0, SVG Export Plug-In . SVG Version: 6.00 Build 0)  -->
<svg version="1.1" id="Camada_1" xmlns="http://www.w3.org/2000/svg" xmlns:xlink="http://www.w3.org/1999/xlink" x="0px" y="0px"
	 viewBox="0 0 50 28" style="enable-background:new 0 0 50 28;" xml:space="preserve">
<style type="text/css">
	.st0{fill:#FFFFFF;}
</style>
<g>
	<g>
		<path class="st0" d="M12.9,22.8c0,0.6-0.1,1.2-0.3,1.8c-0.2,0.5-0.6,1-1,1.4c-0.4,0.4-0.9,0.7-1.4,1c-0.5,0.2-1.1,0.3-1.7,0.3h-8
			v-3.4h1V10.9h-1V7.6h8c0.6,0,1.2,0.1,1.7,0.3c0.5,0.2,1,0.6,1.4,1c0.4,0.4,0.7,0.9,1,1.4c0.2,0.5,0.3,1.1,0.3,1.7v2.1
			c0,0.5-0.1,1-0.2,1.4c-0.1,0.4-0.3,0.7-0.4,0.9c-0.2,0.2-0.4,0.4-0.5,0.6c-0.2,0.1-0.4,0.3-0.5,0.3c0.2,0.1,0.3,0.2,0.5,0.4
			c0.2,0.1,0.4,0.3,0.5,0.6c0.2,0.2,0.3,0.5,0.4,0.9c0.1,0.4,0.2,0.8,0.2,1.4V22.8z M9.4,14v-1.3c0-1.2-0.6-1.7-1.7-1.7H4.9v4.8h2.7
			C8.8,15.7,9.4,15.2,9.4,14z M9.4,22.1v-1.2c0-1.2-0.6-1.7-1.7-1.7H4.9v4.7h2.7c0.6,0,1-0.2,1.3-0.5C9.3,23.1,9.4,22.7,9.4,22.1z"
			/>
		<path class="st0" d="M28.1,27.2h-3.7l-3-8.1h-2.2v8.1h-3.5V7.6h8c0.6,0,1.2,0.1,1.7,0.3c0.5,0.2,1,0.6,1.4,1
			c0.4,0.4,0.7,0.9,1,1.4c0.2,0.5,0.3,1.1,0.3,1.7v2.5c0,1.2-0.3,2.2-0.8,3c-0.5,0.7-1.3,1.2-2.2,1.5L28.1,27.2z M24.6,14v-1.3
			c0-0.6-0.2-1-0.5-1.3c-0.3-0.3-0.7-0.4-1.3-0.4h-3.7v4.8h3.7C24,15.7,24.6,15.1,24.6,14z"/>
		<path class="st0" d="M34.3,27.2h-3.5V7.6h3.5V27.2z"/>
		<path class="st0" d="M49.5,22.8c0,0.6-0.1,1.2-0.3,1.8c-0.2,0.5-0.6,1-1,1.4c-0.4,0.4-0.9,0.7-1.4,1c-0.5,0.2-1.1,0.3-1.7,0.3
			h-3.5c-0.6,0-1.2-0.1-1.8-0.3c-0.5-0.2-1-0.5-1.4-0.9c-0.4-0.4-0.7-0.9-1-1.4c-0.2-0.5-0.3-1.1-0.3-1.8V12c0-0.6,0.1-1.2,0.3-1.7
			c0.2-0.5,0.6-1,1-1.4c0.4-0.4,0.9-0.7,1.4-1c0.5-0.2,1.1-0.3,1.8-0.3h3.5c0.6,0,1.2,0.1,1.7,0.3c0.5,0.2,1,0.6,1.4,1
			c0.4,0.4,0.7,0.9,1,1.4c0.2,0.5,0.3,1.1,0.3,1.7V22.8z M46.1,22.1v-9.4c0-1.2-0.6-1.7-1.7-1.7h-2c-1.2,0-1.7,0.6-1.7,1.7v9.4
			c0,1.2,0.6,1.7,1.7,1.7h2c0.6,0,1-0.2,1.3-0.5C45.9,23.1,46.1,22.7,46.1,22.1z"/>
	</g>
	<path class="st0" d="M0.5,4.2V0.8h49v3.5H0.5z"/>
</g>
</svg>
