<?xml version="1.0" encoding="utf-8"?>
<!-- Generator: Adobe Illustrator 22.1.0, SVG Export Plug-In . SVG Version: 6.00 Build 0)  -->
<svg version="1.1" id="Camada_1" xmlns="http://www.w3.org/2000/svg" xmlns:xlink="http://www.w3.org/1999/xlink" x="0px" y="0px"
	 viewBox="0 0 50 21" style="enable-background:new 0 0 50 21;" xml:space="preserve">
<style type="text/css">
	.st0{fill:#040006;}
</style>
<path class="st0" d="M12.9,15.9c0,0.6-0.1,1.2-0.3,1.8c-0.2,0.5-0.6,1-1,1.4c-0.4,0.4-0.9,0.7-1.4,1c-0.5,0.2-1.1,0.3-1.7,0.3h-8V17
	h1V4h-1V0.7h8C9,0.7,9.6,0.8,10.2,1c0.5,0.2,1,0.6,1.4,1c0.4,0.4,0.7,0.9,1,1.4c0.2,0.5,0.3,1.1,0.3,1.7v2.1c0,0.5-0.1,1-0.2,1.4
	c-0.1,0.4-0.3,0.7-0.4,0.9c-0.2,0.2-0.4,0.4-0.5,0.6c-0.2,0.1-0.4,0.3-0.5,0.3c0.2,0.1,0.3,0.2,0.5,0.4c0.2,0.1,0.4,0.3,0.5,0.6
	c0.2,0.2,0.3,0.5,0.4,0.9c0.1,0.4,0.2,0.8,0.2,1.4V15.9z M9.4,7.1V5.8C9.4,4.6,8.8,4,7.7,4H4.9v4.8h2.7C8.8,8.8,9.4,8.2,9.4,7.1z
	 M9.4,15.2V14c0-1.2-0.6-1.7-1.7-1.7H4.9V17h2.7c0.6,0,1-0.2,1.3-0.5C9.3,16.2,9.4,15.8,9.4,15.2z"/>
<path class="st0" d="M28.1,20.3h-3.7l-3-8.1h-2.2v8.1h-3.5V0.7h8c0.6,0,1.2,0.1,1.7,0.3c0.5,0.2,1,0.6,1.4,1c0.4,0.4,0.7,0.9,1,1.4
	c0.2,0.5,0.3,1.1,0.3,1.7v2.5c0,1.2-0.3,2.2-0.8,3c-0.5,0.7-1.3,1.2-2.2,1.5L28.1,20.3z M24.6,7.1V5.8c0-0.6-0.2-1-0.5-1.3
	C23.9,4.2,23.4,4,22.9,4h-3.7v4.8h3.7C24,8.8,24.6,8.2,24.6,7.1z"/>
<path class="st0" d="M34.3,20.3h-3.5V8.8V0.7h3.5v8.1V20.3z"/>
<path class="st0" d="M49.5,15.9c0,0.6-0.1,1.2-0.3,1.8c-0.2,0.5-0.6,1-1,1.4c-0.4,0.4-0.9,0.7-1.4,1c-0.5,0.2-1.1,0.3-1.7,0.3h-3.5
	c-0.6,0-1.2-0.1-1.8-0.3c-0.5-0.2-1-0.5-1.4-0.9c-0.4-0.4-0.7-0.9-1-1.4c-0.2-0.5-0.3-1.1-0.3-1.8V5.1c0-0.6,0.1-1.2,0.3-1.7
	c0.2-0.5,0.6-1,1-1.4c0.4-0.4,0.9-0.7,1.4-1c0.5-0.2,1.1-0.3,1.8-0.3h3.5c0.6,0,1.2,0.1,1.7,0.3c0.5,0.2,1,0.6,1.4,1
	c0.4,0.4,0.7,0.9,1,1.4c0.2,0.5,0.3,1.1,0.3,1.7V15.9z M46.1,15.2V5.8c0-1.2-0.6-1.7-1.7-1.7h-2c-1.2,0-1.7,0.6-1.7,1.7v9.4
	c0,1.2,0.6,1.7,1.7,1.7h2c0.6,0,1-0.2,1.3-0.5C45.9,16.2,46.1,15.8,46.1,15.2z"/>
</svg>
