<?xml version="1.0" encoding="utf-8"?>
<!-- Generator: Adobe Illustrator 22.1.0, SVG Export Plug-In . SVG Version: 6.00 Build 0)  -->
<svg version="1.1" id="Camada_1" xmlns="http://www.w3.org/2000/svg" xmlns:xlink="http://www.w3.org/1999/xlink" x="0px" y="0px"
	 viewBox="0 0 22 21" style="enable-background:new 0 0 22 21;" xml:space="preserve">
<style type="text/css">
	.st0{fill:#FFFFFF;}
</style>
<g>
	<path class="st0" d="M9.1,11.5h0.3c0.2,0,0.3-0.1,0.4-0.2c0.1-0.2,0.2-0.4,0.2-0.6l0.4-3.8H9.1V11.5z"/>
	<path class="st0" d="M4.4,11.5h0.3c0.1,0,0.3-0.1,0.4-0.2c0.1-0.2,0.2-0.4,0.2-0.6l0.4-3.8H4.4V11.5z"/>
	<path class="st0" d="M16.6,7.1c-0.1,0.2-0.2,0.4-0.2,0.6v6.5h0.7c0.1,0,0.3-0.1,0.3-0.2c0.1-0.1,0.1-0.3,0.1-0.6V6.8h-0.7
		C16.8,6.8,16.7,6.9,16.6,7.1z"/>
	<path class="st0" d="M1,0.5v20h20v-20H1z M6.1,13l0.3,2H3.6V6.1h3.1l-0.5,4.7c-0.1,0.5-0.2,0.9-0.5,1.1C5.9,12.1,6.1,12.5,6.1,13z
		 M10.9,13l0.3,2h-0.8l-0.1-0.8l-0.2-1.1c0-0.2-0.1-0.4-0.2-0.6c-0.1-0.2-0.2-0.2-0.4-0.2H9.1v2.6H8.3V6.1h3.1l-0.5,4.7
		c-0.1,0.5-0.2,0.9-0.5,1.1C10.6,12.1,10.8,12.5,10.9,13z M13.8,14.9l-0.8,0V6.1h0.8V14.9z M18.4,13.3c0,0.5-0.1,0.9-0.3,1.2
		c-0.2,0.3-0.5,0.4-1,0.4h-1.5V7.7c0-0.5,0.1-0.8,0.4-1.1c0.2-0.3,0.5-0.5,0.9-0.5h1.5V13.3z"/>
	<path class="st0" d="M5.1,12.5c-0.1-0.2-0.2-0.2-0.4-0.2H4.4v1.9h1.2l-0.2-1.1C5.3,12.9,5.3,12.7,5.1,12.5z"/>
</g>
</svg>
